<svg aria-hidden="true" style="width:0;height:0;position:absolute;overflow:hidden" xmlns="http://www.w3.org/2000/svg"><defs><symbol id="icon-film" viewBox="0 0 32 32"><path fill="none" stroke="#fff" style="stroke:var(--color1,#fff)" stroke-linejoin="round" stroke-linecap="round" stroke-width="2.667" d="M26.427 2.667H5.574a2.907 2.907 0 0 0-2.907 2.907v20.853a2.907 2.907 0 0 0 2.907 2.907h20.853a2.907 2.907 0 0 0 2.907-2.907V5.574a2.907 2.907 0 0 0-2.907-2.907zM9.333 2.667v26.667M22.667 2.667v26.667M2.667 16h26.667M2.667 9.333h6.667M2.667 22.667h6.667M22.667 22.667h6.667M22.667 9.333h6.667"/></symbol><symbol id="icon-search" viewBox="0 0 32 32"><path fill="none" stroke="#fff" style="stroke:var(--color1,#fff)" stroke-linejoin="round" stroke-linecap="round" stroke-width="2.667" d="M14.667 25.333c5.891 0 10.667-4.776 10.667-10.667S20.558 3.999 14.667 3.999 4 8.775 4 14.666s4.776 10.667 10.667 10.667zM28 28.001l-5.8-5.8"/></symbol><symbol id="icon-cloud-upload" viewBox="0 0 32 32"><path d="M27.883 12.078a5 5 0 0 0-6.168-5.911 6.003 6.003 0 0 0-11.475.151A8 8 0 1 0 8 22h4v6h8v-6h7a5 5 0 0 0 .883-9.922zM18 20v6h-4v-6H9l7-7 7 7h-5z"/></symbol><symbol id="icon-cloud-download" viewBox="0 0 32 32"><path d="M27.844 11.252A7.438 7.438 0 0 0 20.411 4a7.42 7.42 0 0 0-5.839 2.835 4.168 4.168 0 0 0-3.303-1.624 4.177 4.177 0 0 0-4.133 4.771 6.056 6.056 0 0 0-7.134 5.96A6.056 6.056 0 0 0 6.056 22h2.868l7.078 7.328L23.08 22h3.484a5.45 5.45 0 0 0 1.282-10.747zM16 26l-6-6h4v-6h4v6h4l-6 6z"/></symbol></defs></svg>