<svg aria-hidden="true" style="position:absolute;width:0;height:0;overflow:hidden" xmlns="http://www.w3.org/2000/svg"><defs>
<symbol id="icon-cross" viewBox="0 0 32 32"><path d="M31.708 25.708 22 16l9.708-9.708a1 1 0 0 0 0-1.414L27.122.292a1 1 0 0 0-1.414-.001L16 9.999 6.292.291a.998.998 0 0 0-1.414.001L.292 4.878a1 1 0 0 0 0 1.414L10 16 .292 25.708a.999.999 0 0 0 0 1.414l4.586 4.586a1 1 0 0 0 1.414 0L16 22l9.708 9.708a1 1 0 0 0 1.414 0l4.586-4.586a.999.999 0 0 0 0-1.414z"/></symbol>
<symbol id="icon-filter" viewBox="0 0 32 32"><path d="M16 0C7.163 0 0 2.239 0 5v3l12 12v10c0 1.105 1.791 2 4 2s4-.895 4-2V20L32 8V5c0-2.761-7.163-5-16-5zM2.95 4.338c.748-.427 1.799-.832 3.04-1.171C8.738 2.415 12.293 2 16.001 2s7.262.414 10.011 1.167c1.241.34 2.292.745 3.04 1.171.494.281.76.519.884.662-.124.142-.391.38-.884.662-.748.427-1.8.832-3.04 1.171C23.264 7.585 19.709 8 16.001 8S8.739 7.586 5.99 6.833c-1.24-.34-2.292-.745-3.04-1.171-.494-.282-.76-.519-.884-.662.124-.142.391-.38.884-.662z"/></symbol></defs></svg>